<svg width="322" height="322" viewBox="0 0 322 322" fill="none" xmlns="http://www.w3.org/2000/svg">
<path d="M264.039 6.44H57.9592C43.7912 6.44 32.1992 18.032 32.1992 32.2V289.8C32.1992 303.968 43.7912 315.56 57.9592 315.56H264.039C278.207 315.56 289.799 303.968 289.799 289.8V32.2C289.799 18.032 278.207 6.44 264.039 6.44ZM109.479 264.04C109.479 271.124 103.683 276.92 96.5992 276.92H70.8392C63.7552 276.92 57.9592 271.124 57.9592 264.04V257.6C57.9592 250.516 63.7552 244.72 70.8392 244.72H96.5992C103.683 244.72 109.479 250.516 109.479 257.6V264.04ZM109.479 212.52C109.479 219.604 103.683 225.4 96.5992 225.4H70.8392C63.7552 225.4 57.9592 219.604 57.9592 212.52V206.08C57.9592 198.996 63.7552 193.2 70.8392 193.2H96.5992C103.683 193.2 109.479 198.996 109.479 206.08V212.52ZM109.479 161C109.479 168.084 103.683 173.88 96.5992 173.88H70.8392C63.7552 173.88 57.9592 168.084 57.9592 161V154.56C57.9592 147.476 63.7552 141.68 70.8392 141.68H96.5992C103.683 141.68 109.479 147.476 109.479 154.56V161ZM186.759 264.04C186.759 271.124 180.963 276.92 173.879 276.92H148.119C141.035 276.92 135.239 271.124 135.239 264.04V257.6C135.239 250.516 141.035 244.72 148.119 244.72H173.879C180.963 244.72 186.759 250.516 186.759 257.6V264.04ZM186.759 212.52C186.759 219.604 180.963 225.4 173.879 225.4H148.119C141.035 225.4 135.239 219.604 135.239 212.52V206.08C135.239 198.996 141.035 193.2 148.119 193.2H173.879C180.963 193.2 186.759 198.996 186.759 206.08V212.52ZM186.759 161C186.759 168.084 180.963 173.88 173.879 173.88H148.119C141.035 173.88 135.239 168.084 135.239 161V154.56C135.239 147.476 141.035 141.68 148.119 141.68H173.879C180.963 141.68 186.759 147.476 186.759 154.56V161ZM264.039 264.04C264.039 271.124 258.243 276.92 251.159 276.92H225.399C218.315 276.92 212.519 271.124 212.519 264.04V257.6C212.519 250.516 218.315 244.72 225.399 244.72H251.159C258.243 244.72 264.039 250.516 264.039 257.6V264.04ZM264.039 212.52C264.039 219.604 258.243 225.4 251.159 225.4H225.399C218.315 225.4 212.519 219.604 212.519 212.52V206.08C212.519 198.996 218.315 193.2 225.399 193.2H251.159C258.243 193.2 264.039 198.996 264.039 206.08V212.52ZM264.039 161C264.039 168.084 258.243 173.88 251.159 173.88H225.399C218.315 173.88 212.519 168.084 212.519 161V154.56C212.519 147.476 218.315 141.68 225.399 141.68H251.159C258.243 141.68 264.039 147.476 264.039 154.56V161ZM264.039 103.04C264.039 110.124 258.243 115.92 251.159 115.92H70.8392C63.7552 115.92 57.9592 110.124 57.9592 103.04V51.52C57.9592 44.436 63.7552 38.64 70.8392 38.64H251.159C258.243 38.64 264.039 44.436 264.039 51.52V103.04Z" fill="white"/>
</svg>
